  <svg
      width="32"
      height="32"
      viewBox="0 0 85 22"
      fill="none"
      xmlns="http://www.w3.org/2000/svg"
    >
      <path
        d="M5.99609 21H5.15234V1.59375H5.99609V21ZM4.30859 21H3.46484V1.59375H4.30859V21ZM2.62109 21H1.77734V1.59375H2.62109V21ZM0.933594 21H0.0898438V1.59375H0.933594V21ZM12.1602 11.2969L17.1172 1.59375H18.0547L13.0977 11.2969L18.0547 21H17.1172L12.1602 11.2969ZM10.2734 11.2969L15.2305 1.59375H16.168L11.2109 11.2969L16.168 21H15.2305L10.2734 11.2969ZM8.38672 11.2969L13.3438 1.59375H14.2812L9.32422 11.2969L14.2812 21H13.3438L8.38672 11.2969ZM6.48828 11.2969L11.457 1.59375H12.3945L7.42578 11.2969L12.3945 21H11.457L6.48828 11.2969ZM26.5156 8.01562C25.6094 8.92188 25.1562 10.0156 25.1562 11.2969C25.1562 12.5781 25.6094 13.6719 26.5156 14.5781C27.4219 15.4844 28.5156 15.9375 29.7969 15.9375C31.0781 15.9375 32.1719 15.4844 33.0781 14.5781C33.9844 13.6719 34.4375 12.5781 34.4375 11.2969C34.4375 10.0156 33.9844 8.92188 33.0781 8.01562C32.1719 7.10938 31.0781 6.65625 29.7969 6.65625C28.5156 6.65625 27.4219 7.10938 26.5156 8.01562ZM24.7461 13.4297C24.457 12.75 24.3125 12.0391 24.3125 11.2969C24.3125 10.5547 24.457 9.84766 24.7461 9.17578C25.0352 8.49609 25.4258 7.91016 25.918 7.41797C26.4102 6.92578 26.9922 6.53516 27.6641 6.24609C28.3438 5.95703 29.0547 5.8125 29.7969 5.8125C30.5391 5.8125 31.2461 5.95703 31.918 6.24609C32.5977 6.53516 33.1836 6.92578 33.6758 7.41797C34.168 7.91016 34.5586 8.49609 34.8477 9.17578C35.1367 9.84766 35.2812 10.5547 35.2812 11.2969C35.2812 12.0391 35.1367 12.75 34.8477 13.4297C34.5586 14.1016 34.168 14.6836 33.6758 15.1758C33.1836 15.668 32.5977 16.0586 31.918 16.3477C31.2461 16.6367 30.5391 16.7812 29.7969 16.7812C29.0547 16.7812 28.3438 16.6367 27.6641 16.3477C26.9922 16.0586 26.4102 15.668 25.918 15.1758C25.4258 14.6836 25.0352 14.1016 24.7461 13.4297ZM24.3125 8.12109C23.75 9.08984 23.4688 10.1484 23.4688 11.2969C23.4688 12.4453 23.75 13.5039 24.3125 14.4727C24.8828 15.4414 25.6523 16.2109 26.6211 16.7812C27.5898 17.3438 28.6484 17.625 29.7969 17.625C30.9453 17.625 32.0039 17.3438 32.9727 16.7812C33.9414 16.2109 34.707 15.4414 35.2695 14.4727C35.8398 13.5039 36.125 12.4453 36.125 11.2969C36.125 10.1484 35.8398 9.08984 35.2695 8.12109C34.707 7.15234 33.9414 6.38672 32.9727 5.82422C32.0039 5.25391 30.9453 4.96875 29.7969 4.96875C28.6484 4.96875 27.5898 5.25391 26.6211 5.82422C25.6523 6.38672 24.8828 7.15234 24.3125 8.12109ZM23.5859 14.8945C22.9453 13.793 22.625 12.5938 22.625 11.2969C22.625 10 22.9453 8.80078 23.5859 7.69922C24.2266 6.59766 25.0977 5.72656 26.1992 5.08594C27.3008 4.44531 28.5 4.125 29.7969 4.125C31.0938 4.125 32.293 4.44531 33.3945 5.08594C34.4961 5.72656 35.3672 6.59766 36.0078 7.69922C36.6484 8.80078 36.9688 10 36.9688 11.2969C36.9688 12.5938 36.6484 13.793 36.0078 14.8945C35.3672 15.9961 34.4961 16.8672 33.3945 17.5078C32.293 18.1484 31.0938 18.4688 29.7969 18.4688C28.5 18.4688 27.3008 18.1484 26.1992 17.5078C25.0977 16.8672 24.2266 15.9961 23.5859 14.8945ZM22.4141 8.17969C21.9922 9.17188 21.7812 10.2109 21.7812 11.2969C21.7812 12.3828 21.9922 13.4219 22.4141 14.4141C22.8359 15.4062 23.4023 16.2617 24.1133 16.9805C24.832 17.6914 25.6875 18.2578 26.6797 18.6797C27.6719 19.1016 28.7109 19.3125 29.7969 19.3125C30.8828 19.3125 31.9219 19.1016 32.9141 18.6797C33.9062 18.2578 34.7578 17.6914 35.4688 16.9805C36.1875 16.2617 36.7578 15.4062 37.1797 14.4141C37.6016 13.4219 37.8125 12.3828 37.8125 11.2969C37.8125 10.2109 37.6016 9.17188 37.1797 8.17969C36.7578 7.1875 36.1875 6.33594 35.4688 5.625C34.7578 4.90625 33.9062 4.33594 32.9141 3.91406C31.9219 3.49219 30.8828 3.28125 29.7969 3.28125C28.7109 3.28125 27.6719 3.49219 26.6797 3.91406C25.6875 4.33594 24.832 4.90625 24.1133 5.625C23.4023 6.33594 22.8359 7.1875 22.4141 8.17969ZM22.1211 15.7383C21.332 14.3789 20.9375 12.8984 20.9375 11.2969C20.9375 9.69531 21.332 8.21484 22.1211 6.85547C22.918 5.49609 23.9961 4.42188 25.3555 3.63281C26.7148 2.83594 28.1953 2.4375 29.7969 2.4375C31.3984 2.4375 32.8789 2.83594 34.2383 3.63281C35.5977 4.42188 36.6719 5.49609 37.4609 6.85547C38.2578 8.21484 38.6562 9.69531 38.6562 11.2969C38.6562 12.8984 38.2578 14.3789 37.4609 15.7383C36.6719 17.0977 35.5977 18.1758 34.2383 18.9727C32.8789 19.7617 31.3984 20.1562 29.7969 20.1562C28.1953 20.1562 26.7148 19.7617 25.3555 18.9727C23.9961 18.1758 22.918 17.0977 22.1211 15.7383ZM20.8555 7.53516C20.3477 8.73047 20.0938 9.98438 20.0938 11.2969C20.0938 12.6094 20.3477 13.8672 20.8555 15.0703C21.3711 16.2656 22.0625 17.2969 22.9297 18.1641C23.7969 19.0312 24.8281 19.7227 26.0234 20.2383C27.2266 20.7461 28.4844 21 29.7969 21C31.1094 21 32.3633 20.7461 33.5586 20.2383C34.7617 19.7227 35.7969 19.0312 36.6641 18.1641C37.5312 17.2969 38.2188 16.2656 38.7266 15.0703C39.2422 13.8672 39.5 12.6094 39.5 11.2969C39.5 9.98438 39.2422 8.73047 38.7266 7.53516C38.2188 6.33203 37.5312 5.29688 36.6641 4.42969C35.7969 3.5625 34.7617 2.875 33.5586 2.36719C32.3633 1.85156 31.1094 1.59375 29.7969 1.59375C28.4844 1.59375 27.2266 1.85156 26.0234 2.36719C24.8281 2.875 23.7969 3.5625 22.9297 4.42969C22.0625 5.29688 21.3711 6.33203 20.8555 7.53516ZM20.082 15.3984C19.5273 14.0938 19.25 12.7266 19.25 11.2969C19.25 9.86719 19.5273 8.50391 20.082 7.20703C20.6445 5.90234 21.3945 4.78125 22.332 3.84375C23.2773 2.89844 24.3984 2.14844 25.6953 1.59375C27 1.03125 28.3672 0.75 29.7969 0.75C31.2266 0.75 32.5898 1.03125 33.8867 1.59375C35.1914 2.14844 36.3125 2.89844 37.25 3.84375C38.1953 4.78125 38.9453 5.90234 39.5 7.20703C40.0625 8.50391 40.3438 9.86719 40.3438 11.2969C40.3438 12.7266 40.0625 14.0938 39.5 15.3984C38.9453 16.6953 38.1953 17.8164 37.25 18.7617C36.3125 19.6992 35.1914 20.4453 33.8867 21C32.5898 21.5625 31.2266 21.8438 29.7969 21.8438C28.3672 21.8438 27 21.5625 25.6953 21C24.3984 20.4453 23.2773 19.6992 22.332 18.7617C21.3945 17.8164 20.6445 16.6953 20.082 15.3984ZM56.0586 13.9219L56.9023 12.3281V21H56.0586V13.9219ZM57.7461 10.6875L58.5898 9.09375V21H57.7461V10.6875ZM59.4336 7.5L60.2773 5.89453V21H59.4336V7.5ZM53.7734 13.5234L53.293 12.6445L59.1055 1.59375H60.0547L53.7734 13.5234ZM52.8008 11.6836L52.3086 10.793L57.1836 1.59375H58.1445L52.8008 11.6836ZM47.1523 12.4219L47.9961 14.0156V21H47.1523V12.4219ZM45.4648 9.21094L46.3086 10.8047V21H45.4648V9.21094ZM43.7773 6L44.6211 7.60547V21H43.7773V6ZM50.5977 15.9375H49.6484L42.9336 3.19922V21H42.0898V1.59375H43.0391L50.5977 15.9375ZM52.5078 15.9375H51.5469L44 1.59375H44.9609L52.5078 15.9375ZM61.1211 3.19922L54.4062 15.9375H53.4453L45.9102 1.59375H46.8594L53.9375 15.0469L61.0039 1.59375H61.9648V21H61.1211V3.19922ZM71.0234 8.01562C70.1172 8.92188 69.6641 10.0156 69.6641 11.2969C69.6641 12.5781 70.1172 13.6719 71.0234 14.5781C71.9297 15.4844 73.0234 15.9375 74.3047 15.9375C75.5859 15.9375 76.6797 15.4844 77.5859 14.5781C78.4922 13.6719 78.9453 12.5781 78.9453 11.2969C78.9453 10.0156 78.4922 8.92188 77.5859 8.01562C76.6797 7.10938 75.5859 6.65625 74.3047 6.65625C73.0234 6.65625 71.9297 7.10938 71.0234 8.01562ZM69.2539 13.4297C68.9648 12.75 68.8203 12.0391 68.8203 11.2969C68.8203 10.5547 68.9648 9.84766 69.2539 9.17578C69.543 8.49609 69.9336 7.91016 70.4258 7.41797C70.918 6.92578 71.5 6.53516 72.1719 6.24609C72.8516 5.95703 73.5625 5.8125 74.3047 5.8125C75.0469 5.8125 75.7539 5.95703 76.4258 6.24609C77.1055 6.53516 77.6914 6.92578 78.1836 7.41797C78.6758 7.91016 79.0664 8.49609 79.3555 9.17578C79.6445 9.84766 79.7891 10.5547 79.7891 11.2969C79.7891 12.0391 79.6445 12.75 79.3555 13.4297C79.0664 14.1016 78.6758 14.6836 78.1836 15.1758C77.6914 15.668 77.1055 16.0586 76.4258 16.3477C75.7539 16.6367 75.0469 16.7812 74.3047 16.7812C73.5625 16.7812 72.8516 16.6367 72.1719 16.3477C71.5 16.0586 70.918 15.668 70.4258 15.1758C69.9336 14.6836 69.543 14.1016 69.2539 13.4297ZM68.8203 8.12109C68.2578 9.08984 67.9766 10.1484 67.9766 11.2969C67.9766 12.4453 68.2578 13.5039 68.8203 14.4727C69.3906 15.4414 70.1602 16.2109 71.1289 16.7812C72.0977 17.3438 73.1562 17.625 74.3047 17.625C75.4531 17.625 76.5117 17.3438 77.4805 16.7812C78.4492 16.2109 79.2148 15.4414 79.7773 14.4727C80.3477 13.5039 80.6328 12.4453 80.6328 11.2969C80.6328 10.1484 80.3477 9.08984 79.7773 8.12109C79.2148 7.15234 78.4492 6.38672 77.4805 5.82422C76.5117 5.25391 75.4531 4.96875 74.3047 4.96875C73.1562 4.96875 72.0977 5.25391 71.1289 5.82422C70.1602 6.38672 69.3906 7.15234 68.8203 8.12109ZM68.0938 14.8945C67.4531 13.793 67.1328 12.5938 67.1328 11.2969C67.1328 10 67.4531 8.80078 68.0938 7.69922C68.7344 6.59766 69.6055 5.72656 70.707 5.08594C71.8086 4.44531 73.0078 4.125 74.3047 4.125C75.6016 4.125 76.8008 4.44531 77.9023 5.08594C79.0039 5.72656 79.875 6.59766 80.5156 7.69922C81.1562 8.80078 81.4766 10 81.4766 11.2969C81.4766 12.5938 81.1562 13.793 80.5156 14.8945C79.875 15.9961 79.0039 16.8672 77.9023 17.5078C76.8008 18.1484 75.6016 18.4688 74.3047 18.4688C73.0078 18.4688 71.8086 18.1484 70.707 17.5078C69.6055 16.8672 68.7344 15.9961 68.0938 14.8945ZM66.9219 8.17969C66.5 9.17188 66.2891 10.2109 66.2891 11.2969C66.2891 12.3828 66.5 13.4219 66.9219 14.4141C67.3438 15.4062 67.9102 16.2617 68.6211 16.9805C69.3398 17.6914 70.1953 18.2578 71.1875 18.6797C72.1797 19.1016 73.2188 19.3125 74.3047 19.3125C75.3906 19.3125 76.4297 19.1016 77.4219 18.6797C78.4141 18.2578 79.2656 17.6914 79.9766 16.9805C80.6953 16.2617 81.2656 15.4062 81.6875 14.4141C82.1094 13.4219 82.3203 12.3828 82.3203 11.2969C82.3203 10.2109 82.1094 9.17188 81.6875 8.17969C81.2656 7.1875 80.6953 6.33594 79.9766 5.625C79.2656 4.90625 78.4141 4.33594 77.4219 3.91406C76.4297 3.49219 75.3906 3.28125 74.3047 3.28125C73.2188 3.28125 72.1797 3.49219 71.1875 3.91406C70.1953 4.33594 69.3398 4.90625 68.6211 5.625C67.9102 6.33594 67.3438 7.1875 66.9219 8.17969ZM66.6289 15.7383C65.8398 14.3789 65.4453 12.8984 65.4453 11.2969C65.4453 9.69531 65.8398 8.21484 66.6289 6.85547C67.4258 5.49609 68.5039 4.42188 69.8633 3.63281C71.2227 2.83594 72.7031 2.4375 74.3047 2.4375C75.9062 2.4375 77.3867 2.83594 78.7461 3.63281C80.1055 4.42188 81.1797 5.49609 81.9688 6.85547C82.7656 8.21484 83.1641 9.69531 83.1641 11.2969C83.1641 12.8984 82.7656 14.3789 81.9688 15.7383C81.1797 17.0977 80.1055 18.1758 78.7461 18.9727C77.3867 19.7617 75.9062 20.1562 74.3047 20.1562C72.7031 20.1562 71.2227 19.7617 69.8633 18.9727C68.5039 18.1758 67.4258 17.0977 66.6289 15.7383ZM65.3633 7.53516C64.8555 8.73047 64.6016 9.98438 64.6016 11.2969C64.6016 12.6094 64.8555 13.8672 65.3633 15.0703C65.8789 16.2656 66.5703 17.2969 67.4375 18.1641C68.3047 19.0312 69.3359 19.7227 70.5312 20.2383C71.7344 20.7461 72.9922 21 74.3047 21C75.6172 21 76.8711 20.7461 78.0664 20.2383C79.2695 19.7227 80.3047 19.0312 81.1719 18.1641C82.0391 17.2969 82.7266 16.2656 83.2344 15.0703C83.75 13.8672 84.0078 12.6094 84.0078 11.2969C84.0078 9.98438 83.75 8.73047 83.2344 7.53516C82.7266 6.33203 82.0391 5.29688 81.1719 4.42969C80.3047 3.5625 79.2695 2.875 78.0664 2.36719C76.8711 1.85156 75.6172 1.59375 74.3047 1.59375C72.9922 1.59375 71.7344 1.85156 70.5312 2.36719C69.3359 2.875 68.3047 3.5625 67.4375 4.42969C66.5703 5.29688 65.8789 6.33203 65.3633 7.53516ZM64.5898 15.3984C64.0352 14.0938 63.7578 12.7266 63.7578 11.2969C63.7578 9.86719 64.0352 8.50391 64.5898 7.20703C65.1523 5.90234 65.9023 4.78125 66.8398 3.84375C67.7852 2.89844 68.9062 2.14844 70.2031 1.59375C71.5078 1.03125 72.875 0.75 74.3047 0.75C75.7344 0.75 77.0977 1.03125 78.3945 1.59375C79.6992 2.14844 80.8203 2.89844 81.7578 3.84375C82.7031 4.78125 83.4531 5.90234 84.0078 7.20703C84.5703 8.50391 84.8516 9.86719 84.8516 11.2969C84.8516 12.7266 84.5703 14.0938 84.0078 15.3984C83.4531 16.6953 82.7031 17.8164 81.7578 18.7617C80.8203 19.6992 79.6992 20.4453 78.3945 21C77.0977 21.5625 75.7344 21.8438 74.3047 21.8438C72.875 21.8438 71.5078 21.5625 70.2031 21C68.9062 20.4453 67.7852 19.6992 66.8398 18.7617C65.9023 17.8164 65.1523 16.6953 64.5898 15.3984Z"
        fill="#231F20"
      />
    </svg>
